# xmcd
#
# Track frame offsets:
# 150
# 17401
# 32897
# 45762
# 61883
# 81363
# 99288
# 119914
# 135962
# 152059
# 162901
# 183527
# 202304
# 221731
# 235056
#
# Disc length: 3404 seconds
#
#
# Revision: 9
# Processed by: cddbd v1.5PL3 Copyright (c) Steve Scherf et al.
# Submitted via: FreeRIP 2.70 
#
DISCID=c80d4a0f
DTITLE=Garotos de Ouro - Obrigado Patrão Velho
DYEAR=1999
DGENRE=Country
TTITLE0=Chora No Ombro Do Véio
TTITLE1=Festa Campeira
TTITLE2=Obrigado Patrão Velho
TTITLE3=Gaiteiro De Barraca
TTITLE4=Eu Reconheço Que Sou Grosso
TTITLE5=A. M. M. M.
TTITLE6=Linda Flor
TTITLE7=O Menino Da Porteira
TTITLE8=Morena De Goiás
TTITLE9=Coisa Boa É Mulher
TTITLE10=Coração Gaudério
TTITLE11=Coração Sonhador
TTITLE12=No Claear Do Dia
TTITLE13=Peão Andejo
TTITLE14=Se Preparando Pra Semana Farroupilha
EXTD=
EXTT0=
EXTT1=
EXTT2=
EXTT3=
EXTT4=
EXTT5=
EXTT6=
EXTT7=
EXTT8=
EXTT9=
EXTT10=
EXTT11=
EXTT12=
EXTT13=
EXTT14=
PLAYORDER=
